<?xml version="1.0" standalone="no"?>
<!DOCTYPE svg PUBLIC "-//W3C//DTD SVG 20010904//EN"
 "http://www.w3.org/TR/2001/REC-SVG-20010904/DTD/svg10.dtd">
<svg version="1.0" xmlns="http://www.w3.org/2000/svg"
 width="510.000000pt" height="510.000000pt" viewBox="0 0 510.000000 510.000000"
 preserveAspectRatio="xMidYMid meet">
<metadata>
Created by potrace 1.14, written by Peter Selinger 2001-2017
</metadata>
<g transform="translate(0.000000,510.000000) scale(0.100000,-0.100000)"
fill="#000000" stroke="none">
<path d="M2086 4815 c-18 -5 -44 -19 -57 -30 -51 -42 -51 -45 -52 -464 l0
-391 -391 0 c-438 0 -439 0 -480 -71 -18 -32 -19 -59 -21 -419 -1 -212 -3
-387 -3 -390 -1 -3 -173 -6 -383 -5 -417 0 -424 -1 -469 -58 l-25 -31 -2 -296
c-6 -660 -5 -682 13 -715 9 -17 32 -42 50 -55 l34 -23 394 1 393 1 -1 -386
c-1 -435 0 -440 71 -484 38 -22 40 -22 428 -23 l390 -1 1 -391 c1 -440 1 -436
76 -475 36 -18 63 -19 518 -19 532 1 513 -2 561 68 l23 34 1 392 0 391 391 0
c367 1 393 2 420 20 76 50 74 35 74 479 l0 395 388 -1 c440 0 445 1 485 79 15
28 17 85 17 504 0 327 -3 482 -11 504 -7 18 -30 44 -54 61 l-42 29 -392 0
-391 -1 0 391 c0 359 -1 393 -18 424 -38 71 -41 71 -477 71 l-391 0 0 394 0
394 -24 36 c-47 68 -45 68 -555 70 -280 0 -469 -3 -489 -9z m775 -292 c1 -5 2
-179 3 -388 1 -360 2 -382 21 -414 11 -19 32 -43 48 -55 26 -20 39 -20 422
-20 217 0 396 -3 396 -6 1 -3 2 -181 3 -396 2 -436 -1 -420 73 -467 36 -23 36
-23 424 -22 339 0 389 -2 390 -15 0 -22 1 -531 0 -560 l-1 -25 -377 0 c-258 1
-389 -3 -413 -10 -19 -7 -48 -28 -64 -49 l-30 -37 -1 -394 c0 -256 -4 -395
-10 -396 -5 -1 -183 -2 -395 -3 -286 -1 -391 -5 -407 -14 -12 -7 -35 -29 -50
-49 l-28 -36 0 -391 -1 -391 -74 -5 c-41 -3 -176 -4 -300 -2 l-225 3 1 377 c0
258 -3 388 -11 412 -7 19 -29 48 -49 65 l-38 30 -381 2 c-210 0 -389 2 -397 2
-13 1 -15 52 -15 395 l0 394 -31 39 c-17 21 -45 43 -61 48 -19 6 -181 10 -412
10 l-381 0 0 297 c0 164 3 299 8 299 4 1 180 2 392 3 l385 1 33 23 c43 31 63
72 63 130 0 90 7 727 8 732 1 3 173 6 383 5 408 0 427 2 469 51 33 38 37 87
35 462 l-1 372 297 0 c164 0 299 -3 299 -7z"/>
<path d="M2290 3016 l0 -134 163 0 c89 0 172 0 185 -1 l23 -1 -3 -437 c-3
-415 -4 -440 -23 -477 -46 -91 -134 -122 -277 -100 -101 16 -209 71 -291 149
l-27 26 2 -178 3 -177 69 -29 c38 -16 76 -31 85 -33 183 -48 288 -52 465 -19
49 10 138 56 172 90 60 61 102 152 120 260 4 22 8 300 9 618 l1 577 -338 0
-338 0 0 -134z"/>
</g>
</svg>
